<mxfile host="app.diagrams.net" modified="2023-08-22T21:03:00.668Z" agent="Mozilla/5.0 (Windows NT 10.0; Win64; x64) AppleWebKit/537.36 (KHTML, like Gecko) Chrome/115.0.0.0 Safari/537.36 Edg/115.0.1901.203" etag="shOuUtt5zuAf20lbIedn" version="21.6.9" type="google">
  <diagram id="HfjM1wZW--X67TTqQhMb" name="Page-1">
    <mxGraphModel grid="1" page="1" gridSize="10" guides="1" tooltips="1" connect="1" arrows="1" fold="1" pageScale="1" pageWidth="850" pageHeight="1100" math="0" shadow="0">
      <root>
        <mxCell id="0" />
        <mxCell id="1" parent="0" />
        <mxCell id="et5guZH8IR5iMEiWxP18-28" value="" style="rounded=1;whiteSpace=wrap;html=1;dashed=1;" vertex="1" parent="1">
          <mxGeometry x="440" y="600" width="230" height="90" as="geometry" />
        </mxCell>
        <mxCell id="et5guZH8IR5iMEiWxP18-27" value="" style="rounded=1;whiteSpace=wrap;html=1;dashed=1;" vertex="1" parent="1">
          <mxGeometry x="170" y="600" width="230" height="90" as="geometry" />
        </mxCell>
        <mxCell id="et5guZH8IR5iMEiWxP18-1" value="Hospitalized for COVID-19, screened for enrollment&lt;br&gt;&lt;b&gt;3214&lt;/b&gt;" style="rounded=0;whiteSpace=wrap;html=1;" vertex="1" parent="1">
          <mxGeometry x="360" y="80" width="120" height="60" as="geometry" />
        </mxCell>
        <mxCell id="et5guZH8IR5iMEiWxP18-2" value="" style="endArrow=none;html=1;rounded=0;exitX=0.5;exitY=1;exitDx=0;exitDy=0;endFill=0;entryX=0.5;entryY=0;entryDx=0;entryDy=0;" edge="1" parent="1" source="et5guZH8IR5iMEiWxP18-1" target="et5guZH8IR5iMEiWxP18-10">
          <mxGeometry width="50" height="50" relative="1" as="geometry">
            <mxPoint x="400" y="370" as="sourcePoint" />
            <mxPoint x="420" y="280" as="targetPoint" />
          </mxGeometry>
        </mxCell>
        <mxCell id="et5guZH8IR5iMEiWxP18-4" value="&lt;div style=&quot;text-align: left;&quot;&gt;&lt;span style=&quot;background-color: initial;&quot;&gt;Ineligible:&amp;nbsp;&lt;/span&gt;&lt;b style=&quot;background-color: initial;&quot;&gt;1664&lt;/b&gt;&lt;/div&gt;&lt;div style=&quot;text-align: left;&quot;&gt;&lt;span style=&quot;background-color: initial;&quot;&gt;&lt;b&gt;&amp;nbsp; &amp;nbsp;&lt;/b&gt;Failed exclusion&lt;sup&gt;1&lt;/sup&gt;:&amp;nbsp;&lt;b&gt;1024&lt;/b&gt;&lt;/span&gt;&lt;/div&gt;&lt;div style=&quot;text-align: left;&quot;&gt;&lt;span style=&quot;background-color: initial;&quot;&gt;&lt;b&gt;&amp;nbsp; &amp;nbsp; &amp;nbsp; &lt;/b&gt;(not mutually exclusive)&lt;/span&gt;&lt;/div&gt;&lt;div style=&quot;text-align: left;&quot;&gt;&lt;span style=&quot;background-color: initial;&quot;&gt;&amp;nbsp; &amp;nbsp; &amp;nbsp; Symptoms &amp;gt;14 days: &lt;b&gt;309&lt;/b&gt;&lt;/span&gt;&lt;br&gt;&lt;/div&gt;&lt;div style=&quot;text-align: left;&quot;&gt;&amp;nbsp; &amp;nbsp; &amp;nbsp; Clinician decision: &lt;b&gt;197&lt;/b&gt;&lt;/div&gt;&lt;div style=&quot;text-align: left;&quot;&gt;&amp;nbsp; &amp;nbsp; &amp;nbsp; Hospitalized &amp;gt;72 hr: &lt;b&gt;193&lt;/b&gt;&lt;/div&gt;&lt;div style=&quot;text-align: left;&quot;&gt;&amp;nbsp; &amp;nbsp; &amp;nbsp; Not pursuing full care:&amp;nbsp;&lt;b style=&quot;border-color: var(--border-color);&quot;&gt;102&lt;/b&gt;&lt;b&gt;&lt;br&gt;&lt;/b&gt;&lt;/div&gt;&lt;div style=&quot;text-align: left;&quot;&gt;&amp;nbsp; &amp;nbsp; &amp;nbsp; Renal replacement therapy: &lt;b&gt;100&lt;/b&gt;&lt;/div&gt;&lt;div style=&quot;text-align: left;&quot;&gt;&lt;span style=&quot;background-color: initial;&quot;&gt;&amp;nbsp; &amp;nbsp; &amp;nbsp; Pregnancy: &lt;/span&gt;&lt;b style=&quot;background-color: initial;&quot;&gt;77&lt;/b&gt;&lt;/div&gt;&lt;div style=&quot;text-align: left;&quot;&gt;&lt;b style=&quot;background-color: initial;&quot;&gt;&amp;nbsp; &amp;nbsp; &amp;nbsp; &lt;/b&gt;&lt;span style=&quot;background-color: initial;&quot;&gt;Sensitivity to study medication: &lt;b&gt;26&lt;/b&gt;&lt;/span&gt;&lt;/div&gt;&lt;div style=&quot;text-align: left;&quot;&gt;&lt;span style=&quot;background-color: initial;&quot;&gt;&amp;nbsp; &amp;nbsp; &amp;nbsp; Hemodynamic instability: &lt;b&gt;23&lt;/b&gt;&lt;/span&gt;&lt;/div&gt;&lt;div style=&quot;text-align: left;&quot;&gt;&lt;b style=&quot;border-color: var(--border-color);&quot;&gt;&amp;nbsp; &amp;nbsp; &amp;nbsp;&amp;nbsp;&lt;/b&gt;Trial-specific exclusions:&amp;nbsp;&lt;b style=&quot;border-color: var(--border-color);&quot;&gt;19&lt;/b&gt;&lt;span style=&quot;background-color: initial;&quot;&gt;&lt;b&gt;&lt;br&gt;&lt;/b&gt;&lt;/span&gt;&lt;/div&gt;&lt;div style=&quot;text-align: left;&quot;&gt;&lt;span style=&quot;background-color: initial;&quot;&gt;&lt;b&gt;&amp;nbsp; &amp;nbsp; &amp;nbsp; &lt;/b&gt;LV obstruction: &lt;b&gt;12&lt;/b&gt;&lt;/span&gt;&lt;/div&gt;&lt;div style=&quot;text-align: left;&quot;&gt;&lt;span style=&quot;background-color: initial;&quot;&gt;&lt;b&gt;&amp;nbsp; &amp;nbsp; &amp;nbsp; &lt;/b&gt;Breastfeeding: &lt;b&gt;8&lt;/b&gt;&lt;/span&gt;&lt;/div&gt;&lt;div style=&quot;text-align: left;&quot;&gt;&lt;span style=&quot;background-color: initial;&quot;&gt;&amp;nbsp; &amp;nbsp; &amp;nbsp; Prisoners: &lt;b&gt;8&lt;/b&gt;&lt;/span&gt;&lt;/div&gt;&lt;div style=&quot;text-align: left;&quot;&gt;&lt;span style=&quot;background-color: initial;&quot;&gt;&amp;nbsp; &amp;nbsp; &amp;nbsp; Enrolled in another RAAS trial: &lt;b&gt;6&lt;/b&gt;&lt;/span&gt;&lt;/div&gt;&lt;div style=&quot;text-align: left;&quot;&gt;&lt;span style=&quot;background-color: initial;&quot;&gt;&amp;nbsp; &amp;nbsp; &amp;nbsp; Severe renal artery stenosis: &lt;b&gt;6&lt;/b&gt;&lt;/span&gt;&lt;/div&gt;&lt;div style=&quot;text-align: left;&quot;&gt;&amp;nbsp; &amp;nbsp;Failed inclusion: Not hypoxemic:&amp;nbsp;&lt;b style=&quot;border-color: var(--border-color);&quot;&gt;640&lt;/b&gt;&lt;b&gt;&lt;br&gt;&lt;/b&gt;&lt;/div&gt;&lt;div style=&quot;text-align: left;&quot;&gt;&lt;span style=&quot;border-color: var(--border-color);&quot;&gt;Declined:&amp;nbsp;&lt;b style=&quot;font-weight: bold; border-color: var(--border-color); background-color: initial;&quot;&gt;511&lt;/b&gt;&lt;br&gt;&lt;/span&gt;&lt;/div&gt;&lt;div style=&quot;text-align: left;&quot;&gt;&lt;span style=&quot;background-color: initial;&quot;&gt;Not approached:&amp;nbsp;&lt;/span&gt;&lt;b style=&quot;background-color: initial;&quot;&gt;289&lt;/b&gt;&lt;/div&gt;&lt;div style=&quot;text-align: left;&quot;&gt;&lt;span style=&quot;background-color: initial;&quot;&gt;Other:&amp;nbsp;&lt;/span&gt;&lt;b style=&quot;background-color: initial;&quot;&gt;216&lt;/b&gt;&lt;br&gt;&lt;/div&gt;" style="rounded=0;whiteSpace=wrap;html=1;" vertex="1" parent="1">
          <mxGeometry x="550" y="80" width="220" height="310" as="geometry" />
        </mxCell>
        <mxCell id="et5guZH8IR5iMEiWxP18-10" value="Randomized&lt;sup style=&quot;&quot;&gt;&lt;font style=&quot;font-size: 10px;&quot;&gt;2&lt;/font&gt;&lt;/sup&gt;&lt;br&gt;&lt;b&gt;534&lt;/b&gt;" style="rounded=0;whiteSpace=wrap;html=1;" vertex="1" parent="1">
          <mxGeometry x="360" y="330" width="120" height="50" as="geometry" />
        </mxCell>
        <mxCell id="et5guZH8IR5iMEiWxP18-12" value="" style="endArrow=none;html=1;rounded=0;entryX=0.5;entryY=1;entryDx=0;entryDy=0;" edge="1" parent="1" target="et5guZH8IR5iMEiWxP18-10">
          <mxGeometry width="50" height="50" relative="1" as="geometry">
            <mxPoint x="420" y="420" as="sourcePoint" />
            <mxPoint x="450" y="330" as="targetPoint" />
          </mxGeometry>
        </mxCell>
        <mxCell id="et5guZH8IR5iMEiWxP18-13" value="" style="endArrow=classic;html=1;rounded=0;entryX=0.5;entryY=0;entryDx=0;entryDy=0;endFill=1;" edge="1" parent="1" target="et5guZH8IR5iMEiWxP18-18">
          <mxGeometry width="50" height="50" relative="1" as="geometry">
            <mxPoint x="420" y="440" as="sourcePoint" />
            <mxPoint x="600" y="480" as="targetPoint" />
            <Array as="points">
              <mxPoint x="630" y="440" />
            </Array>
          </mxGeometry>
        </mxCell>
        <mxCell id="et5guZH8IR5iMEiWxP18-14" value="" style="endArrow=classic;html=1;rounded=0;entryX=0.5;entryY=0;entryDx=0;entryDy=0;endFill=1;" edge="1" parent="1" target="et5guZH8IR5iMEiWxP18-16">
          <mxGeometry width="50" height="50" relative="1" as="geometry">
            <mxPoint x="420" y="440" as="sourcePoint" />
            <mxPoint x="240" y="480" as="targetPoint" />
            <Array as="points">
              <mxPoint x="330" y="440" />
              <mxPoint x="210" y="440" />
            </Array>
          </mxGeometry>
        </mxCell>
        <mxCell id="et5guZH8IR5iMEiWxP18-15" value="" style="endArrow=classic;html=1;rounded=0;entryX=0.5;entryY=0;entryDx=0;entryDy=0;endFill=1;" edge="1" parent="1" target="et5guZH8IR5iMEiWxP18-17">
          <mxGeometry width="50" height="50" relative="1" as="geometry">
            <mxPoint x="420" y="420" as="sourcePoint" />
            <mxPoint x="420" y="460" as="targetPoint" />
          </mxGeometry>
        </mxCell>
        <mxCell id="et5guZH8IR5iMEiWxP18-16" value="&lt;div style=&quot;&quot;&gt;&lt;span style=&quot;background-color: initial;&quot;&gt;Active TXA-127&lt;/span&gt;&lt;/div&gt;&lt;div style=&quot;&quot;&gt;&lt;b&gt;176&lt;/b&gt;&lt;/div&gt;" style="rounded=0;whiteSpace=wrap;html=1;align=center;" vertex="1" parent="1">
          <mxGeometry x="160" y="460" width="100" height="68.75" as="geometry" />
        </mxCell>
        <mxCell id="et5guZH8IR5iMEiWxP18-17" value="&lt;b&gt;&lt;br&gt;&lt;/b&gt;" style="rounded=0;whiteSpace=wrap;html=1;" vertex="1" parent="1">
          <mxGeometry x="320" y="460" width="200" height="70" as="geometry" />
        </mxCell>
        <mxCell id="et5guZH8IR5iMEiWxP18-18" value="Active TRV-027&lt;br&gt;&lt;b&gt;149&lt;/b&gt;" style="rounded=0;whiteSpace=wrap;html=1;" vertex="1" parent="1">
          <mxGeometry x="580" y="460" width="100" height="70" as="geometry" />
        </mxCell>
        <mxCell id="et5guZH8IR5iMEiWxP18-20" value="Active Fostamatinib&lt;br&gt;&lt;b&gt;24&lt;/b&gt;" style="rounded=0;whiteSpace=wrap;html=1;" vertex="1" parent="1">
          <mxGeometry x="650" y="400" width="120" height="40" as="geometry" />
        </mxCell>
        <mxCell id="et5guZH8IR5iMEiWxP18-22" style="edgeStyle=orthogonalEdgeStyle;rounded=0;orthogonalLoop=1;jettySize=auto;html=1;exitX=0.5;exitY=1;exitDx=0;exitDy=0;endArrow=none;endFill=0;" edge="1" parent="1" source="et5guZH8IR5iMEiWxP18-16" target="et5guZH8IR5iMEiWxP18-16">
          <mxGeometry relative="1" as="geometry" />
        </mxCell>
        <mxCell id="et5guZH8IR5iMEiWxP18-23" value="&lt;font style=&quot;font-size: 12px;&quot;&gt;Placebo TXA-127&lt;br&gt;&lt;b&gt;173&lt;/b&gt;&lt;/font&gt;" style="rounded=0;whiteSpace=wrap;html=1;" vertex="1" parent="1">
          <mxGeometry x="290" y="620" width="100" height="50" as="geometry" />
        </mxCell>
        <mxCell id="et5guZH8IR5iMEiWxP18-24" value="Placebo TRV-027&lt;br&gt;&lt;b&gt;145&lt;/b&gt;" style="rounded=0;whiteSpace=wrap;html=1;" vertex="1" parent="1">
          <mxGeometry x="450" y="620" width="100" height="50" as="geometry" />
        </mxCell>
        <mxCell id="et5guZH8IR5iMEiWxP18-33" value="" style="endArrow=classic;html=1;rounded=0;" edge="1" parent="1">
          <mxGeometry width="50" height="50" relative="1" as="geometry">
            <mxPoint x="420" y="240" as="sourcePoint" />
            <mxPoint x="550" y="240" as="targetPoint" />
            <Array as="points">
              <mxPoint x="490" y="240" />
              <mxPoint x="530" y="240" />
            </Array>
          </mxGeometry>
        </mxCell>
        <mxCell id="et5guZH8IR5iMEiWxP18-45" value="" style="endArrow=classic;html=1;rounded=0;exitX=0.5;exitY=1;exitDx=0;exitDy=0;entryX=0.5;entryY=0;entryDx=0;entryDy=0;" edge="1" parent="1" source="jMuF3EqlF6J_qGCGLpIN-3" target="et5guZH8IR5iMEiWxP18-24">
          <mxGeometry width="50" height="50" relative="1" as="geometry">
            <mxPoint x="420" y="560" as="sourcePoint" />
            <mxPoint x="460" y="590" as="targetPoint" />
            <Array as="points">
              <mxPoint x="500" y="550" />
            </Array>
          </mxGeometry>
        </mxCell>
        <mxCell id="et5guZH8IR5iMEiWxP18-49" value="TXA-127 Trial Analysis" style="text;html=1;strokeColor=none;fillColor=none;align=center;verticalAlign=middle;whiteSpace=wrap;rounded=0;dashed=1;" vertex="1" parent="1">
          <mxGeometry x="210" y="670" width="150" height="20" as="geometry" />
        </mxCell>
        <mxCell id="et5guZH8IR5iMEiWxP18-55" value="" style="endArrow=classic;html=1;rounded=0;entryX=0;entryY=0.5;entryDx=0;entryDy=0;entryPerimeter=0;" edge="1" parent="1">
          <mxGeometry width="50" height="50" relative="1" as="geometry">
            <mxPoint x="420" y="420" as="sourcePoint" />
            <mxPoint x="650" y="420" as="targetPoint" />
          </mxGeometry>
        </mxCell>
        <mxCell id="et5guZH8IR5iMEiWxP18-56" value="&lt;div style=&quot;&quot;&gt;&lt;span style=&quot;background-color: initial;&quot;&gt;Active TXA-127&lt;/span&gt;&lt;/div&gt;&lt;div style=&quot;&quot;&gt;&lt;b&gt;170&lt;/b&gt;&lt;/div&gt;" style="rounded=0;whiteSpace=wrap;html=1;align=center;" vertex="1" parent="1">
          <mxGeometry x="180" y="620" width="100" height="50" as="geometry" />
        </mxCell>
        <mxCell id="et5guZH8IR5iMEiWxP18-57" value="Active TRV-027&lt;br&gt;&lt;b&gt;145&lt;/b&gt;" style="rounded=0;whiteSpace=wrap;html=1;" vertex="1" parent="1">
          <mxGeometry x="560" y="620" width="100" height="50" as="geometry" />
        </mxCell>
        <mxCell id="et5guZH8IR5iMEiWxP18-58" value="" style="endArrow=classic;html=1;rounded=0;exitX=0.5;exitY=1;exitDx=0;exitDy=0;" edge="1" parent="1" source="et5guZH8IR5iMEiWxP18-16">
          <mxGeometry width="50" height="50" relative="1" as="geometry">
            <mxPoint x="205" y="530" as="sourcePoint" />
            <mxPoint x="210" y="620" as="targetPoint" />
            <Array as="points">
              <mxPoint x="210" y="570" />
            </Array>
          </mxGeometry>
        </mxCell>
        <mxCell id="et5guZH8IR5iMEiWxP18-59" value="" style="endArrow=classic;html=1;rounded=0;exitX=0.5;exitY=1;exitDx=0;exitDy=0;" edge="1" parent="1" source="et5guZH8IR5iMEiWxP18-18">
          <mxGeometry width="50" height="50" relative="1" as="geometry">
            <mxPoint x="630" y="540" as="sourcePoint" />
            <mxPoint x="630" y="620" as="targetPoint" />
          </mxGeometry>
        </mxCell>
        <mxCell id="et5guZH8IR5iMEiWxP18-69" value="TRV-027 Trial Analysis" style="text;html=1;strokeColor=none;fillColor=none;align=center;verticalAlign=middle;whiteSpace=wrap;rounded=0;dashed=1;" vertex="1" parent="1">
          <mxGeometry x="480" y="670" width="150" height="20" as="geometry" />
        </mxCell>
        <mxCell id="jMuF3EqlF6J_qGCGLpIN-2" value="TXA-127 eligible&lt;br&gt;&lt;b&gt;38&lt;/b&gt;" style="rounded=0;whiteSpace=wrap;html=1;" vertex="1" parent="1">
          <mxGeometry x="270" y="480" width="100" height="50" as="geometry" />
        </mxCell>
        <mxCell id="jMuF3EqlF6J_qGCGLpIN-3" value="TRV-027 eligible&lt;br&gt;&lt;b&gt;10&lt;/b&gt;" style="rounded=0;whiteSpace=wrap;html=1;" vertex="1" parent="1">
          <mxGeometry x="470" y="480" width="100" height="50" as="geometry" />
        </mxCell>
        <mxCell id="jMuF3EqlF6J_qGCGLpIN-4" value="TXA-127 and TRV-027 eligible&lt;br&gt;&lt;b&gt;137&lt;/b&gt;" style="rounded=0;whiteSpace=wrap;html=1;" vertex="1" parent="1">
          <mxGeometry x="370" y="480" width="100" height="50" as="geometry" />
        </mxCell>
        <mxCell id="wyQJDgZwZa48RFsRyzTD-7" value="" style="endArrow=classic;html=1;rounded=0;exitX=0.5;exitY=1;exitDx=0;exitDy=0;entryX=0.5;entryY=0;entryDx=0;entryDy=0;" edge="1" parent="1" source="jMuF3EqlF6J_qGCGLpIN-2" target="et5guZH8IR5iMEiWxP18-23">
          <mxGeometry width="50" height="50" relative="1" as="geometry">
            <mxPoint x="660" y="440" as="sourcePoint" />
            <mxPoint x="380" y="590" as="targetPoint" />
            <Array as="points">
              <mxPoint x="340" y="550" />
            </Array>
          </mxGeometry>
        </mxCell>
        <mxCell id="wyQJDgZwZa48RFsRyzTD-10" value="" style="endArrow=none;html=1;rounded=0;entryX=0.5;entryY=1;entryDx=0;entryDy=0;" edge="1" parent="1" target="jMuF3EqlF6J_qGCGLpIN-4">
          <mxGeometry width="50" height="50" relative="1" as="geometry">
            <mxPoint x="340" y="550" as="sourcePoint" />
            <mxPoint x="420" y="520" as="targetPoint" />
          </mxGeometry>
        </mxCell>
        <mxCell id="wyQJDgZwZa48RFsRyzTD-11" value="" style="endArrow=none;html=1;rounded=0;exitX=0.5;exitY=1;exitDx=0;exitDy=0;" edge="1" parent="1" source="jMuF3EqlF6J_qGCGLpIN-4">
          <mxGeometry width="50" height="50" relative="1" as="geometry">
            <mxPoint x="420" y="520" as="sourcePoint" />
            <mxPoint x="500" y="550" as="targetPoint" />
          </mxGeometry>
        </mxCell>
        <mxCell id="e6Mgp7aJvmVQ6rzXZ3QZ-8" value="Placebo: &lt;b&gt;185&lt;/b&gt;" style="rounded=0;whiteSpace=wrap;html=1;" vertex="1" parent="1">
          <mxGeometry x="270" y="460" width="300" height="20" as="geometry" />
        </mxCell>
        <mxCell id="e6Mgp7aJvmVQ6rzXZ3QZ-17" style="edgeStyle=orthogonalEdgeStyle;rounded=0;orthogonalLoop=1;jettySize=auto;html=1;exitX=0;exitY=0.5;exitDx=0;exitDy=0;fontSize=12;entryX=0;entryY=0.5;entryDx=0;entryDy=0;" edge="1" parent="1" target="e6Mgp7aJvmVQ6rzXZ3QZ-9">
          <mxGeometry relative="1" as="geometry">
            <mxPoint x="210" y="569.6666666666667" as="sourcePoint" />
          </mxGeometry>
        </mxCell>
        <mxCell id="e6Mgp7aJvmVQ6rzXZ3QZ-9" value="&lt;font style=&quot;font-size: 12px;&quot;&gt;mITT Exclusions&lt;sup&gt;3&lt;/sup&gt;&lt;br&gt;&lt;b&gt;6&lt;/b&gt;&lt;br&gt;&lt;/font&gt;" style="rounded=0;whiteSpace=wrap;html=1;fontSize=10;" vertex="1" parent="1">
          <mxGeometry x="230" y="555" width="100" height="30" as="geometry" />
        </mxCell>
        <mxCell id="e6Mgp7aJvmVQ6rzXZ3QZ-18" style="edgeStyle=orthogonalEdgeStyle;rounded=0;orthogonalLoop=1;jettySize=auto;html=1;exitX=0;exitY=0.5;exitDx=0;exitDy=0;fontSize=12;entryX=0;entryY=0.5;entryDx=0;entryDy=0;" edge="1" parent="1" target="e6Mgp7aJvmVQ6rzXZ3QZ-10">
          <mxGeometry relative="1" as="geometry">
            <mxPoint x="340" y="569.6666666666667" as="sourcePoint" />
          </mxGeometry>
        </mxCell>
        <mxCell id="e6Mgp7aJvmVQ6rzXZ3QZ-10" value="&lt;font style=&quot;font-size: 12px;&quot;&gt;mITT Exclusions&lt;sup style=&quot;border-color: var(--border-color);&quot;&gt;3&lt;/sup&gt;&lt;br&gt;&lt;b&gt;2&lt;/b&gt;&lt;br&gt;&lt;/font&gt;" style="rounded=0;whiteSpace=wrap;html=1;fontSize=10;" vertex="1" parent="1">
          <mxGeometry x="360" y="555" width="100" height="30" as="geometry" />
        </mxCell>
        <mxCell id="e6Mgp7aJvmVQ6rzXZ3QZ-19" style="edgeStyle=orthogonalEdgeStyle;rounded=0;orthogonalLoop=1;jettySize=auto;html=1;exitX=0;exitY=0.5;exitDx=0;exitDy=0;fontSize=12;entryX=0;entryY=0.5;entryDx=0;entryDy=0;" edge="1" parent="1" target="e6Mgp7aJvmVQ6rzXZ3QZ-11">
          <mxGeometry relative="1" as="geometry">
            <mxPoint x="500" y="569.6666666666667" as="sourcePoint" />
          </mxGeometry>
        </mxCell>
        <mxCell id="e6Mgp7aJvmVQ6rzXZ3QZ-11" value="&lt;font style=&quot;font-size: 12px;&quot;&gt;mITT Exclusions&lt;sup style=&quot;border-color: var(--border-color);&quot;&gt;3&lt;/sup&gt;&lt;br&gt;&lt;b&gt;2&lt;/b&gt;&lt;br&gt;&lt;/font&gt;" style="rounded=0;whiteSpace=wrap;html=1;fontSize=10;" vertex="1" parent="1">
          <mxGeometry x="520" y="555" width="100" height="30" as="geometry" />
        </mxCell>
        <mxCell id="e6Mgp7aJvmVQ6rzXZ3QZ-20" style="edgeStyle=orthogonalEdgeStyle;rounded=0;orthogonalLoop=1;jettySize=auto;html=1;exitX=0;exitY=0.5;exitDx=0;exitDy=0;fontSize=12;strokeColor=default;endSize=6;entryX=0;entryY=0.5;entryDx=0;entryDy=0;" edge="1" parent="1" target="e6Mgp7aJvmVQ6rzXZ3QZ-12">
          <mxGeometry relative="1" as="geometry">
            <mxPoint x="630" y="569.6666666666667" as="sourcePoint" />
          </mxGeometry>
        </mxCell>
        <mxCell id="e6Mgp7aJvmVQ6rzXZ3QZ-12" value="&lt;font style=&quot;font-size: 12px;&quot;&gt;mITT Exclusions&lt;sup style=&quot;border-color: var(--border-color);&quot;&gt;3&lt;/sup&gt;&lt;br&gt;&lt;b&gt;4&lt;/b&gt;&lt;br&gt;&lt;/font&gt;" style="rounded=0;whiteSpace=wrap;html=1;fontSize=10;" vertex="1" parent="1">
          <mxGeometry x="650" y="555" width="100" height="30" as="geometry" />
        </mxCell>
      </root>
    </mxGraphModel>
  </diagram>
</mxfile>
